<svg width="24" height="24" viewBox="0 0 24 24" fill="none" xmlns="http://www.w3.org/2000/svg">
<g id="bx:support">
<path id="Vector" d="M11.7035 2C6.32606 2 1.95117 6.486 1.95117 12V16.143C1.95117 17.167 2.82596 18 3.90164 18H4.87687C5.13552 18 5.38357 17.8946 5.56646 17.7071C5.74935 17.5196 5.8521 17.2652 5.8521 17V11.857C5.8521 11.5918 5.74935 11.3374 5.56646 11.1499C5.38357 10.9624 5.13552 10.857 4.87687 10.857H3.99136C4.53359 6.987 7.78111 4 11.7035 4C15.6259 4 18.8734 6.987 19.4156 10.857H18.5301C18.2715 10.857 18.0234 10.9624 17.8405 11.1499C17.6576 11.3374 17.5549 11.5918 17.5549 11.857V18C17.5549 19.103 16.6801 20 15.6044 20H13.654V19H9.75303V22H15.6044C17.7558 22 19.5054 20.206 19.5054 18C20.581 18 21.4558 17.167 21.4558 16.143V12C21.4558 6.486 17.0809 2 11.7035 2Z" fill="#004CFF"/>
</g>
</svg>
