<svg width="16" height="16" viewBox="0 0 16 16" fill="none" xmlns="http://www.w3.org/2000/svg">
<path d="M12.243 12.243C12.5034 11.9827 12.5034 11.5606 12.243 11.3002L8.94367 8.00086L12.244 4.70057C12.5043 4.44022 12.5043 4.01811 12.244 3.75776C11.9836 3.49741 11.5615 3.49741 11.3011 3.75776L8.00086 7.05805L4.70057 3.75776C4.44022 3.49741 4.01811 3.49741 3.75776 3.75776C3.49741 4.01811 3.49741 4.44022 3.75776 4.70057L7.05805 8.00086L3.75867 11.3002C3.49832 11.5606 3.49832 11.9827 3.75867 12.243C4.01902 12.5034 4.44113 12.5034 4.70148 12.243L8.00086 8.94367L11.3002 12.243C11.5606 12.5034 11.9827 12.5034 12.243 12.243Z" fill="#191D23"/>
</svg>
