<svg width="25" height="24" viewBox="0 0 25 24" fill="none" xmlns="http://www.w3.org/2000/svg">
<g id="ion:documents-outline">
<path id="Vector" d="M15.9992 12.3811V20.4375C15.9992 21.5766 15.092 22.5 13.954 22.5H5.09448C3.95401 22.5 3.04688 21.5766 3.04688 20.4375V8.0625C3.05012 7.51648 3.27191 6.99373 3.66414 6.60763C4.05637 6.22152 4.58741 6.0032 5.1421 6H9.62398C9.77911 6.00023 9.93265 6.03086 10.0756 6.09009C10.2186 6.14932 10.3482 6.23597 10.4568 6.345L15.6544 11.5481C15.8756 11.7707 15.9993 12.0697 15.9992 12.3811Z" stroke="#004CFF" stroke-width="2" stroke-linejoin="round"/>
<path id="Vector_2" d="M9.52344 6V11.0625C9.52764 11.4093 9.66946 11.7408 9.91861 11.986C10.1677 12.2313 10.5044 12.3709 10.8568 12.375H15.9996" stroke="#004CFF" stroke-width="2" stroke-linecap="round" stroke-linejoin="round"/>
<path id="Vector_3" d="M8.38086 6V3.5625C8.38411 3.01648 8.6059 2.49373 8.99813 2.10763C9.39036 1.72152 9.9214 1.5032 10.4761 1.5H14.9522C15.1082 1.50021 15.2626 1.53081 15.4066 1.59002C15.5505 1.64923 15.6811 1.73589 15.7908 1.845L20.9884 7.04813C21.2093 7.26838 21.3332 7.56546 21.3332 7.875V15.9375C21.3332 17.0766 20.426 18 19.2879 18H16.3808" stroke="#004CFF" stroke-width="2" stroke-linejoin="round"/>
<path id="Vector_4" d="M14.8574 1.5V6.5625C14.8616 6.90931 15.0034 7.24075 15.2526 7.486C15.5017 7.73125 15.8384 7.87086 16.1907 7.875H21.3336" stroke="#004CFF" stroke-width="2" stroke-linecap="round" stroke-linejoin="round"/>
</g>
</svg>
