<svg width="13" height="16" viewBox="0 0 13 16" fill="none" xmlns="http://www.w3.org/2000/svg">
<g id="heroicons:paper-clip-solid">
<path id="Vector" fill-rule="evenodd" clip-rule="evenodd" d="M10.276 2.29463C10.1629 2.16359 10.0285 2.05964 9.88064 1.98872C9.73278 1.9178 9.57429 1.8813 9.41424 1.8813C9.2542 1.8813 9.09571 1.9178 8.94785 1.98872C8.79998 2.05964 8.66562 2.16359 8.55245 2.29463L2.62662 9.15612C2.24571 9.59726 2.03174 10.1955 2.03179 10.8193C2.03185 11.4431 2.24591 12.0414 2.62689 12.4824C3.00787 12.9235 3.52457 13.1712 4.06331 13.1712C4.60205 13.1711 5.11871 12.9233 5.49962 12.4821L9.66666 7.65713C9.74367 7.57404 9.84553 7.5288 9.95078 7.53095C10.056 7.5331 10.1564 7.58247 10.2309 7.66865C10.3053 7.75484 10.3479 7.87111 10.3498 7.99298C10.3517 8.11484 10.3126 8.23278 10.2408 8.32195L6.07379 13.1469C5.811 13.4592 5.49727 13.7079 5.1508 13.8787C4.80434 14.0494 4.43204 14.1388 4.0555 14.1416C3.67897 14.1444 3.3057 14.0606 2.95736 13.8951C2.60901 13.7296 2.29253 13.4856 2.02627 13.1773C1.76002 12.869 1.54929 12.5025 1.40632 12.0992C1.26335 11.6958 1.19098 11.2636 1.19342 10.8276C1.19585 10.3916 1.27304 9.96056 1.42051 9.55939C1.56797 9.15822 1.78278 8.79495 2.05245 8.49067L7.97775 1.62918C8.35873 1.18812 8.87542 0.940371 9.41417 0.94043C9.95291 0.940489 10.4696 1.18835 10.8505 1.62949C11.2314 2.07063 11.4454 2.66891 11.4453 3.29271C11.4452 3.91652 11.2312 4.51475 10.8502 4.95581L4.92816 11.8129L4.92383 11.8179L4.92004 11.8223L4.91895 11.8236L4.91733 11.8248C4.68569 12.0752 4.37896 12.2112 4.06216 12.2041C3.74536 12.197 3.4434 12.0473 3.2203 11.7868C2.9972 11.5263 2.8705 11.1754 2.86706 10.8085C2.86362 10.4416 2.98371 10.0876 3.20187 9.82157L7.43229 4.92319C7.50887 4.83746 7.61147 4.78999 7.71799 4.79101C7.82451 4.79202 7.92642 4.84144 8.00178 4.92861C8.07714 5.01578 8.11991 5.13374 8.12089 5.25708C8.12186 5.38041 8.08096 5.49926 8.007 5.58802L3.77658 10.4864C3.69987 10.5741 3.65637 10.6934 3.65566 10.8182C3.65495 10.943 3.69708 11.063 3.77279 11.1518C3.8485 11.2407 3.95158 11.291 4.05936 11.2919C4.16713 11.2927 4.27078 11.2439 4.3475 11.1562L10.276 4.28973C10.3892 4.15869 10.479 4.00312 10.5402 3.83191C10.6015 3.66069 10.633 3.47719 10.633 3.29186C10.633 3.10654 10.6015 2.92304 10.5402 2.75182C10.479 2.58061 10.3892 2.42567 10.276 2.29463Z" fill="#004CFF"/>
</g>
</svg>
