<svg width="33" height="33" viewBox="0 0 33 33" fill="none" xmlns="http://www.w3.org/2000/svg">
<g id="Icon Illustration">
<path d="M0.40125 6.42C0.40125 3.09594 3.09594 0.40125 6.42 0.40125H26.58C29.9041 0.40125 32.5988 3.09594 32.5988 6.42V26.58C32.5988 29.9041 29.9041 32.5988 26.58 32.5988H6.42C3.09594 32.5988 0.40125 29.9041 0.40125 26.58V6.42Z" fill="#C6D4F1"/>
<path d="M0.40125 6.42C0.40125 3.09594 3.09594 0.40125 6.42 0.40125H26.58C29.9041 0.40125 32.5988 3.09594 32.5988 6.42V26.58C32.5988 29.9041 29.9041 32.5988 26.58 32.5988H6.42C3.09594 32.5988 0.40125 29.9041 0.40125 26.58V6.42Z" stroke="#A0B6EA" stroke-width="0.8025"/>
<g id="Group 7777">
<path id="Vector" d="M26.9793 10.7883C26.9664 10.1369 26.7675 9.50265 26.4061 8.9605C26.0446 8.41835 25.5357 7.99085 24.9393 7.7284C22.4471 6.58947 19.739 6 16.9988 6C14.2587 6 11.5506 6.58947 9.05833 7.7284C8.46962 7.98715 7.96587 8.40678 7.60501 8.93905C7.24414 9.47133 7.04081 10.0946 7.01838 10.7373C6.86539 14.8172 7.49777 23.8848 15.525 28.0769C15.9873 28.3192 16.4992 28.4516 17.0211 28.464C17.5429 28.4764 18.0606 28.3684 18.5339 28.1483C26.5203 24.4152 27.1425 15.0314 26.9793 10.7883Z" fill="#92A8EA" stroke="#254EDB" stroke-width="1.2" stroke-linecap="round" stroke-linejoin="round"/>
<path id="Vector_2" d="M11.9883 14.7158V15.491" stroke="#254EDB" stroke-width="1.2" stroke-linecap="round" stroke-linejoin="round"/>
<path id="Vector_3" d="M15.3242 14.7158V15.491" stroke="#254EDB" stroke-width="1.2" stroke-linecap="round" stroke-linejoin="round"/>
<path id="Vector_4" d="M18.6641 14.7158V15.491" stroke="#254EDB" stroke-width="1.2" stroke-linecap="round" stroke-linejoin="round"/>
<path id="Vector_5" d="M22 14.7158V15.491" stroke="#254EDB" stroke-width="1.2" stroke-linecap="round" stroke-linejoin="round"/>
</g>
</g>
</svg>
