<svg width="33" height="33" viewBox="0 0 33 33" fill="none" xmlns="http://www.w3.org/2000/svg">
<g id="Icon Illustration">
<path d="M0.40125 6.42C0.40125 3.09594 3.09594 0.40125 6.42 0.40125H26.58C29.9041 0.40125 32.5988 3.09594 32.5988 6.42V26.58C32.5988 29.9041 29.9041 32.5988 26.58 32.5988H6.42C3.09594 32.5988 0.40125 29.9041 0.40125 26.58V6.42Z" fill="#FEE4E2"/>
<path d="M0.40125 6.42C0.40125 3.09594 3.09594 0.40125 6.42 0.40125H26.58C29.9041 0.40125 32.5988 3.09594 32.5988 6.42V26.58C32.5988 29.9041 29.9041 32.5988 26.58 32.5988H6.42C3.09594 32.5988 0.40125 29.9041 0.40125 26.58V6.42Z" stroke="#FECDCA" stroke-width="0.8025"/>
<g id="Group 37091">
<g id="Vector 31">
<path d="M16.4993 6.3291H16.9384C17.2092 6.3291 17.4287 6.54863 17.4287 6.81942V10.2516V10.798C17.4287 11.0458 17.2443 11.2529 17.0015 11.3026C15.2399 11.6635 12.3708 13.0715 12.2805 16.503C12.1897 19.9519 15.1722 21.4268 17.0098 21.8216C17.249 21.873 17.4287 22.0784 17.4287 22.323V22.6318V26.0639C17.4287 26.3347 17.2092 26.5542 16.9384 26.5542H16.4957C16.256 26.5542 16.0515 26.3809 16.0121 26.1445L15.7589 24.6253C15.7302 24.4535 15.6126 24.3097 15.4498 24.2477L13.3879 23.4622C13.2324 23.403 13.0575 23.4267 12.9234 23.525L11.6496 24.4591C11.4499 24.6056 11.1724 24.5801 11.0026 24.3998L9.60967 22.9198C9.45151 22.7517 9.43194 22.4961 9.56268 22.3059L10.5271 20.9032C10.6261 20.7592 10.641 20.5734 10.5662 20.4155L9.69225 18.5705C9.62422 18.4269 9.49082 18.3252 9.33433 18.2976L7.90511 18.0454C7.67081 18.004 7.5 17.8004 7.5 17.5625V15.3455C7.5 15.0968 7.6861 14.8876 7.93303 14.8585L9.30794 14.6968C9.47907 14.6766 9.62708 14.5681 9.69779 14.411L10.5738 12.4644C10.6441 12.3082 10.6277 12.1266 10.5307 11.9854L9.57739 10.5988C9.4401 10.3991 9.46929 10.1291 9.64609 9.96333L11.0275 8.66829C11.1884 8.51742 11.4303 8.49259 11.6185 8.60761L13.2744 9.61954C13.4186 9.70769 13.5981 9.71532 13.7493 9.63971L15.4869 8.7709C15.6286 8.70008 15.7273 8.56523 15.752 8.40882L16.015 6.74295C16.0526 6.50463 16.2581 6.3291 16.4993 6.3291Z" fill="#F9ADA8"/>
<path d="M17.4287 10.2516V10.798C17.4287 11.0458 17.2443 11.2529 17.0015 11.3026C15.2399 11.6635 12.3708 13.0715 12.2805 16.503C12.1897 19.9519 15.1722 21.4268 17.0098 21.8216C17.249 21.873 17.4287 22.0784 17.4287 22.323V22.6318M17.4287 10.2516V6.81942C17.4287 6.54863 17.2092 6.3291 16.9384 6.3291H16.4993C16.2581 6.3291 16.0526 6.50463 16.015 6.74295L15.752 8.40882C15.7273 8.56523 15.6286 8.70008 15.4869 8.7709L13.7493 9.63971C13.5981 9.71532 13.4186 9.70769 13.2744 9.61954L11.6185 8.60761C11.4303 8.49259 11.1884 8.51742 11.0275 8.66829L9.64609 9.96333C9.46929 10.1291 9.4401 10.3991 9.57739 10.5988L10.5307 11.9854C10.6277 12.1266 10.6441 12.3082 10.5738 12.4644L9.69779 14.411C9.62708 14.5681 9.47907 14.6766 9.30794 14.6968L7.93303 14.8585C7.6861 14.8876 7.5 15.0968 7.5 15.3455V17.5625C7.5 17.8004 7.67081 18.004 7.90511 18.0454L9.33433 18.2976C9.49082 18.3252 9.62422 18.4269 9.69225 18.5705L10.5662 20.4155C10.641 20.5734 10.6261 20.7592 10.5271 20.9032L9.56268 22.3059C9.43194 22.4961 9.45151 22.7517 9.60967 22.9198L11.0026 24.3998C11.1724 24.5801 11.4499 24.6056 11.6496 24.4591L12.9234 23.525C13.0575 23.4267 13.2324 23.403 13.3879 23.4622L15.4498 24.2477C15.6126 24.3097 15.7302 24.4535 15.7589 24.6253L16.0121 26.1445C16.0515 26.3809 16.256 26.5542 16.4957 26.5542H16.9384C17.2092 26.5542 17.4287 26.3347 17.4287 26.0639V22.6318M17.4287 10.2516H20.0028C20.2736 10.2516 20.4931 10.032 20.4931 9.76123V6.57425M17.4287 22.6318H20.0028C20.2736 22.6318 20.4931 22.8513 20.4931 23.1221V26.5542" stroke="#F2574C" stroke-width="1.22581"/>
</g>
<circle id="Ellipse 212" cx="22.9447" cy="10.2523" r="1.1028" fill="#F9ADA8" stroke="#F2574C" stroke-width="0.980644"/>
<circle id="Ellipse 214" cx="24.9056" cy="16.3802" r="1.1028" fill="#F9ADA8" stroke="#F2574C" stroke-width="0.980644"/>
<circle id="Ellipse 215" cx="22.9447" cy="22.7543" r="1.1028" fill="#F9ADA8" stroke="#F2574C" stroke-width="0.980644"/>
<circle id="Ellipse 216" cx="20.4916" cy="27.4115" r="1.1028" fill="#F9ADA8" stroke="#F2574C" stroke-width="0.980644"/>
<circle id="Ellipse 213" cx="20.4916" cy="5.59312" r="1.1028" fill="#F9ADA8" stroke="#F2574C" stroke-width="0.980644"/>
<path id="Vector 32" d="M22.8214 11.5996V13.3156C22.8214 13.5864 22.6018 13.8059 22.331 13.8059H17.5508" stroke="#F2574C" stroke-width="1.22581"/>
<path id="Vector 33" d="M23.6794 16.5039C23.2871 16.5039 19.4302 16.5856 17.5508 16.6265" stroke="#F2574C" stroke-width="1.22581"/>
<path id="Vector 34" d="M22.9439 21.7742L22.8436 19.6672C22.8312 19.4058 22.6156 19.2002 22.3538 19.2002H17.5508" stroke="#F2574C" stroke-width="1.22581"/>
<path id="Vector 35" d="M17.4272 19.3689V13.51C17.4272 13.2602 17.2371 13.0484 16.9905 13.0886C15.8075 13.2813 14.0099 14.5723 14.1179 16.6256C14.199 18.1656 15.6814 19.2533 16.793 19.7919C17.0963 19.9389 17.4272 19.7059 17.4272 19.3689Z" fill="#F9ADA8" stroke="#F2574C" stroke-width="1.22581"/>
</g>
</g>
</svg>
