<svg width="33" height="33" viewBox="0 0 33 33" fill="none" xmlns="http://www.w3.org/2000/svg">
<g id="Icon Illustration">
<path d="M0.40125 6.42C0.40125 3.09594 3.09594 0.40125 6.42 0.40125H26.58C29.9041 0.40125 32.5988 3.09594 32.5988 6.42V26.58C32.5988 29.9041 29.9041 32.5988 26.58 32.5988H6.42C3.09594 32.5988 0.40125 29.9041 0.40125 26.58V6.42Z" fill="#FEE4E2"/>
<path d="M0.40125 6.42C0.40125 3.09594 3.09594 0.40125 6.42 0.40125H26.58C29.9041 0.40125 32.5988 3.09594 32.5988 6.42V26.58C32.5988 29.9041 29.9041 32.5988 26.58 32.5988H6.42C3.09594 32.5988 0.40125 29.9041 0.40125 26.58V6.42Z" stroke="#F9DBAF" stroke-width="0.8025"/>
<path id="Ellipse 210" d="M24 12.2727C24 15.9894 22.0654 20.0703 20.0754 23.27C19.0868 24.8597 18.0975 26.2116 17.3553 27.1661C17.0065 27.6146 16.7128 27.9747 16.5 28.2298C16.2872 27.9747 15.9935 27.6146 15.6447 27.1661C14.9025 26.2116 13.9132 24.8597 12.9246 23.27C10.9346 20.0703 9 15.9894 9 12.2727C9 8.57603 12.312 5.5 16.5 5.5C20.688 5.5 24 8.57603 24 12.2727Z" fill="#F8B294" stroke="#EF6820"/>
<path id="Vector" d="M16.5 17C18.7091 17 20.5 15.2091 20.5 13C20.5 10.7909 18.7091 9 16.5 9C14.2909 9 12.5 10.7909 12.5 13C12.5 15.2091 14.2909 17 16.5 17Z" fill="#EF6820"/>
</g>
</svg>
