<svg width="33" height="33" viewBox="0 0 33 33" fill="none" xmlns="http://www.w3.org/2000/svg">
<g id="Icon Illustration">
<path d="M0.40125 6.42C0.40125 3.09594 3.09594 0.40125 6.42 0.40125H26.58C29.9041 0.40125 32.5988 3.09594 32.5988 6.42V26.58C32.5988 29.9041 29.9041 32.5988 26.58 32.5988H6.42C3.09594 32.5988 0.40125 29.9041 0.40125 26.58V6.42Z" fill="#D3F8DF"/>
<path d="M0.40125 6.42C0.40125 3.09594 3.09594 0.40125 6.42 0.40125H26.58C29.9041 0.40125 32.5988 3.09594 32.5988 6.42V26.58C32.5988 29.9041 29.9041 32.5988 26.58 32.5988H6.42C3.09594 32.5988 0.40125 29.9041 0.40125 26.58V6.42Z" stroke="#AAF0C4" stroke-width="0.8025"/>
<g id="Ellipse 217">
<circle cx="14.2581" cy="11.3479" r="3.91311" fill="#93E0B6"/>
<circle cx="14.2581" cy="11.3479" r="3.91311" stroke="#2DBB74" stroke-width="0.869579"/>
<circle cx="14.2581" cy="11.3479" r="3.91311" stroke="#16B364" stroke-width="0.869579"/>
</g>
<g id="Ellipse 218">
<circle cx="22.5187" cy="21.6378" r="4.92761" fill="#93E0B6"/>
<circle cx="22.5187" cy="21.6378" r="4.92761" stroke="#2DBB74" stroke-width="0.869579"/>
<circle cx="22.5187" cy="21.6378" r="4.92761" stroke="#16B364" stroke-width="0.869579"/>
</g>
<g id="Vector 36">
<path d="M12.608 18.5209L14.261 19.8985V23.9565H6.66842C6.31563 23.9565 6.04464 23.644 6.09453 23.2948L6.81552 18.2479C6.84831 18.0183 7.01477 17.8303 7.2387 17.7701L10.6109 16.8622C10.6286 16.8574 10.645 16.8487 10.6589 16.8368L11.3226 16.2679C11.3602 16.2357 11.412 16.2857 11.381 16.3244C11.3699 16.3383 11.3691 16.3577 11.379 16.3725L11.5073 16.5651L12.4687 18.3504C12.5038 18.4156 12.5511 18.4735 12.608 18.5209Z" fill="#93E0B6"/>
<path d="M18.6089 16.8549L17.7857 16.7373C17.6615 16.7196 17.5464 16.6621 17.4577 16.5734L17.2321 16.3477M17.0147 15.9854L17.2321 16.3477M17.2321 16.3477L16.1879 18.088C16.1595 18.1353 16.1245 18.1783 16.084 18.2157L14.261 19.8985M14.261 19.8985L12.608 18.5209C12.5511 18.4735 12.5038 18.4156 12.4687 18.3504L11.5073 16.5651L11.379 16.3725C11.3691 16.3577 11.3699 16.3383 11.381 16.3244V16.3244C11.412 16.2857 11.3602 16.2357 11.3226 16.2679L10.6589 16.8368C10.645 16.8487 10.6286 16.8574 10.6109 16.8622L7.2387 17.7701C7.01477 17.8303 6.84831 18.0183 6.81552 18.2479L6.09453 23.2948C6.04464 23.644 6.31563 23.9565 6.66842 23.9565H14.261M14.261 19.8985V23.9565M16.7248 23.9565H14.261" stroke="#2DBB74" stroke-width="0.869579"/>
<path d="M18.6089 16.8549L17.7857 16.7373C17.6615 16.7196 17.5464 16.6621 17.4577 16.5734L17.2321 16.3477M17.0147 15.9854L17.2321 16.3477M17.2321 16.3477L16.1879 18.088C16.1595 18.1353 16.1245 18.1783 16.084 18.2157L14.261 19.8985M14.261 19.8985L12.608 18.5209C12.5511 18.4735 12.5038 18.4156 12.4687 18.3504L11.5073 16.5651L11.379 16.3725C11.3691 16.3577 11.3699 16.3383 11.381 16.3244V16.3244C11.412 16.2857 11.3602 16.2357 11.3226 16.2679L10.6589 16.8368C10.645 16.8487 10.6286 16.8574 10.6109 16.8622L7.2387 17.7701C7.01477 17.8303 6.84831 18.0183 6.81552 18.2479L6.09453 23.2948C6.04464 23.644 6.31563 23.9565 6.66842 23.9565H14.261M14.261 19.8985V23.9565M16.7248 23.9565H14.261" stroke="#16B364" stroke-width="0.869579"/>
</g>
<g id="Vector 37">
<path d="M25.1292 19.6094C25.0244 19.7142 22.9374 21.8012 21.6098 23.1288C21.3898 23.3488 21.0355 23.3557 20.8068 23.1447L19.332 21.7833" stroke="#2DBB74" stroke-width="0.869579"/>
<path d="M25.1292 19.6094C25.0244 19.7142 22.9374 21.8012 21.6098 23.1288C21.3898 23.3488 21.0355 23.3557 20.8068 23.1447L19.332 21.7833" stroke="#16B364" stroke-width="0.869579"/>
</g>
</g>
</svg>
