<svg width="27" height="27" viewBox="0 0 27 27" fill="none" xmlns="http://www.w3.org/2000/svg">
<g id="fluent-color:people-16">
<g id="Vector" filter="url(#filter0_ii_661_871)">
<path d="M14 12.5C13.337 12.5 12.7011 12.2366 12.2322 11.7678C11.7634 11.2989 11.5 10.663 11.5 10C11.5 9.33696 11.7634 8.70107 12.2322 8.23223C12.7011 7.76339 13.337 7.5 14 7.5C14.663 7.5 15.2989 7.76339 15.7678 8.23223C16.2366 8.70107 16.5 9.33696 16.5 10C16.5 10.3283 16.4353 10.6534 16.3097 10.9567C16.1841 11.26 15.9999 11.5356 15.7678 11.7678C15.5356 11.9999 15.26 12.1841 14.9567 12.3097C14.6534 12.4353 14.3283 12.5 14 12.5ZM14 3C12.1435 3 10.363 3.7375 9.05025 5.05025C7.7375 6.36301 7 8.14348 7 10C7 15.25 14 23 14 23C14 23 21 15.25 21 10C21 8.14348 20.2625 6.36301 18.9497 5.05025C17.637 3.7375 15.8565 3 14 3Z" fill="url(#paint0_linear_661_871)"/>
</g>
</g>
<defs>
<filter id="filter0_ii_661_871" x="5.88119" y="2.86015" width="15.5384" height="20.6993" filterUnits="userSpaceOnUse" color-interpolation-filters="sRGB">
<feFlood flood-opacity="0" result="BackgroundImageFix"/>
<feBlend mode="normal" in="SourceGraphic" in2="BackgroundImageFix" result="shape"/>
<feColorMatrix in="SourceAlpha" type="matrix" values="0 0 0 0 0 0 0 0 0 0 0 0 0 0 0 0 0 0 127 0" result="hardAlpha"/>
<feOffset dx="0.419555" dy="-0.139852"/>
<feGaussianBlur stdDeviation="0.587377"/>
<feComposite in2="hardAlpha" operator="arithmetic" k2="-1" k3="1"/>
<feColorMatrix type="matrix" values="0 0 0 0 0.121956 0 0 0 0 0.443424 0 0 0 0 0.764893 0 0 0 0.25 0"/>
<feBlend mode="normal" in2="shape" result="effect1_innerShadow_661_871"/>
<feColorMatrix in="SourceAlpha" type="matrix" values="0 0 0 0 0 0 0 0 0 0 0 0 0 0 0 0 0 0 127 0" result="hardAlpha"/>
<feOffset dx="-1.11881" dy="0.559407"/>
<feGaussianBlur stdDeviation="1.83206"/>
<feComposite in2="hardAlpha" operator="arithmetic" k2="-1" k3="1"/>
<feColorMatrix type="matrix" values="0 0 0 0 0.275958 0 0 0 0 0.584606 0 0 0 0 0.854674 0 0 0 0.58 0"/>
<feBlend mode="normal" in2="effect1_innerShadow_661_871" result="effect2_innerShadow_661_871"/>
</filter>
<linearGradient id="paint0_linear_661_871" x1="10.3285" y1="5.66" x2="21.5897" y2="18.2439" gradientUnits="userSpaceOnUse">
<stop offset="0.125" stop-color="#497DF8"/>
<stop offset="1" stop-color="#004CFF"/>
</linearGradient>
</defs>
</svg>
