<svg width="28" height="28" viewBox="0 0 28 28" fill="none" xmlns="http://www.w3.org/2000/svg">
<g filter="url(#filter0_ii_661_814)">
<path d="M12.9859 0.416813C13.2206 0.233636 13.4963 0.110177 13.7892 0.0570448C13.9973 0.0192979 14.2104 0.0177349 14.419 0.0524246L14.4363 0.0553047C14.7623 0.109493 15.0689 0.246021 15.3273 0.451946L27.2824 9.98018C27.7266 10.3342 27.9486 10.8979 27.8652 11.4597L27.8527 11.5442C27.7732 12.079 27.4033 12.5253 26.8925 12.7025C26.4201 12.8664 25.8967 12.7758 25.507 12.4625L21.2315 9.02605C17.0384 5.65588 11.0567 5.6879 6.9 9.10275L2.87768 12.4072C2.49996 12.7175 2.00379 12.8437 1.52371 12.7516L1.49352 12.7458C0.878657 12.6279 0.389431 12.1615 0.24219 11.553C0.0947301 10.9436 0.317532 10.3043 0.811815 9.91848L12.9859 0.416813Z" fill="url(#paint0_linear_661_814)"/>
<path d="M12.9859 0.416813C13.2206 0.233636 13.4963 0.110177 13.7892 0.0570448C13.9973 0.0192979 14.2104 0.0177349 14.419 0.0524246L14.4363 0.0553047C14.7623 0.109493 15.0689 0.246021 15.3273 0.451946L27.2824 9.98018C27.7266 10.3342 27.9486 10.8979 27.8652 11.4597L27.8527 11.5442C27.7732 12.079 27.4033 12.5253 26.8925 12.7025C26.4201 12.8664 25.8967 12.7758 25.507 12.4625L21.2315 9.02605C17.0384 5.65588 11.0567 5.6879 6.9 9.10275L2.87768 12.4072C2.49996 12.7175 2.00379 12.8437 1.52371 12.7516L1.49352 12.7458C0.878657 12.6279 0.389431 12.1615 0.24219 11.553C0.0947301 10.9436 0.317532 10.3043 0.811815 9.91848L12.9859 0.416813Z" fill="url(#paint1_linear_661_814)"/>
</g>
<g filter="url(#filter1_dii_661_814)">
<path d="M2.55859 12.5515L14.0351 3.17188L25.9265 12.5515V19.2759V22.504C25.9265 24.4349 24.3612 26.0002 22.4302 26.0002H6.05489C4.12393 26.0002 2.55859 24.4349 2.55859 22.504V12.5515Z" fill="url(#paint2_linear_661_814)"/>
</g>
<g filter="url(#filter2_i_661_814)">
<rect x="10" y="12" width="3.91585" height="3.91585" rx="0.978962" fill="url(#paint3_linear_661_814)"/>
</g>
<g filter="url(#filter3_i_661_814)">
<rect x="14.8945" y="12" width="3.91585" height="3.91585" rx="0.978962" fill="url(#paint4_linear_661_814)"/>
</g>
<g filter="url(#filter4_i_661_814)">
<rect x="10" y="16.8945" width="3.91585" height="3.91585" rx="0.978962" fill="url(#paint5_linear_661_814)"/>
</g>
<g filter="url(#filter5_i_661_814)">
<rect x="14.8945" y="16.8945" width="3.91585" height="3.91585" rx="0.978962" fill="url(#paint6_linear_661_814)"/>
</g>
<defs>
<filter id="filter0_ii_661_814" x="-0.921549" y="0.0273438" width="29.2239" height="13.4551" filterUnits="userSpaceOnUse" color-interpolation-filters="sRGB">
<feFlood flood-opacity="0" result="BackgroundImageFix"/>
<feBlend mode="normal" in="SourceGraphic" in2="BackgroundImageFix" result="shape"/>
<feColorMatrix in="SourceAlpha" type="matrix" values="0 0 0 0 0 0 0 0 0 0 0 0 0 0 0 0 0 0 127 0" result="hardAlpha"/>
<feOffset dx="-1.11881" dy="0.559407"/>
<feGaussianBlur stdDeviation="1.83206"/>
<feComposite in2="hardAlpha" operator="arithmetic" k2="-1" k3="1"/>
<feColorMatrix type="matrix" values="0 0 0 0 0.275958 0 0 0 0 0.584606 0 0 0 0 0.854674 0 0 0 0.58 0"/>
<feBlend mode="normal" in2="shape" result="effect1_innerShadow_661_814"/>
<feColorMatrix in="SourceAlpha" type="matrix" values="0 0 0 0 0 0 0 0 0 0 0 0 0 0 0 0 0 0 127 0" result="hardAlpha"/>
<feOffset dx="0.419555" dy="0.699259"/>
<feGaussianBlur stdDeviation="0.587377"/>
<feComposite in2="hardAlpha" operator="arithmetic" k2="-1" k3="1"/>
<feColorMatrix type="matrix" values="0 0 0 0 1 0 0 0 0 1 0 0 0 0 1 0 0 0 0.25 0"/>
<feBlend mode="normal" in2="effect1_innerShadow_661_814" result="effect2_innerShadow_661_814"/>
</filter>
<filter id="filter1_dii_661_814" x="1.43978" y="3.03202" width="25.036" height="24.4346" filterUnits="userSpaceOnUse" color-interpolation-filters="sRGB">
<feFlood flood-opacity="0" result="BackgroundImageFix"/>
<feColorMatrix in="SourceAlpha" type="matrix" values="0 0 0 0 0 0 0 0 0 0 0 0 0 0 0 0 0 0 127 0" result="hardAlpha"/>
<feOffset dy="0.916667"/>
<feGaussianBlur stdDeviation="0.275"/>
<feComposite in2="hardAlpha" operator="out"/>
<feColorMatrix type="matrix" values="0 0 0 0 0.0998537 0 0 0 0 0.205671 0 0 0 0 0.454899 0 0 0 0.27 0"/>
<feBlend mode="normal" in2="BackgroundImageFix" result="effect1_dropShadow_661_814"/>
<feBlend mode="normal" in="SourceGraphic" in2="effect1_dropShadow_661_814" result="shape"/>
<feColorMatrix in="SourceAlpha" type="matrix" values="0 0 0 0 0 0 0 0 0 0 0 0 0 0 0 0 0 0 127 0" result="hardAlpha"/>
<feOffset dx="0.419555" dy="-0.139852"/>
<feGaussianBlur stdDeviation="0.587377"/>
<feComposite in2="hardAlpha" operator="arithmetic" k2="-1" k3="1"/>
<feColorMatrix type="matrix" values="0 0 0 0 0.121956 0 0 0 0 0.443424 0 0 0 0 0.764893 0 0 0 0.25 0"/>
<feBlend mode="normal" in2="shape" result="effect2_innerShadow_661_814"/>
<feColorMatrix in="SourceAlpha" type="matrix" values="0 0 0 0 0 0 0 0 0 0 0 0 0 0 0 0 0 0 127 0" result="hardAlpha"/>
<feOffset dx="-1.11881" dy="0.559407"/>
<feGaussianBlur stdDeviation="1.83206"/>
<feComposite in2="hardAlpha" operator="arithmetic" k2="-1" k3="1"/>
<feColorMatrix type="matrix" values="0 0 0 0 0.275958 0 0 0 0 0.584606 0 0 0 0 0.854674 0 0 0 0.58 0"/>
<feBlend mode="normal" in2="effect2_innerShadow_661_814" result="effect3_innerShadow_661_814"/>
</filter>
<filter id="filter2_i_661_814" x="9.7203" y="11.5804" width="4.19572" height="4.33557" filterUnits="userSpaceOnUse" color-interpolation-filters="sRGB">
<feFlood flood-opacity="0" result="BackgroundImageFix"/>
<feBlend mode="normal" in="SourceGraphic" in2="BackgroundImageFix" result="shape"/>
<feColorMatrix in="SourceAlpha" type="matrix" values="0 0 0 0 0 0 0 0 0 0 0 0 0 0 0 0 0 0 127 0" result="hardAlpha"/>
<feOffset dx="-0.279704" dy="-0.419555"/>
<feGaussianBlur stdDeviation="0.279704"/>
<feComposite in2="hardAlpha" operator="arithmetic" k2="-1" k3="1"/>
<feColorMatrix type="matrix" values="0 0 0 0 0.0250294 0 0 0 0 0.0514773 0 0 0 0 0.421748 0 0 0 0.25 0"/>
<feBlend mode="normal" in2="shape" result="effect1_innerShadow_661_814"/>
</filter>
<filter id="filter3_i_661_814" x="14.6148" y="11.5804" width="4.19572" height="4.33557" filterUnits="userSpaceOnUse" color-interpolation-filters="sRGB">
<feFlood flood-opacity="0" result="BackgroundImageFix"/>
<feBlend mode="normal" in="SourceGraphic" in2="BackgroundImageFix" result="shape"/>
<feColorMatrix in="SourceAlpha" type="matrix" values="0 0 0 0 0 0 0 0 0 0 0 0 0 0 0 0 0 0 127 0" result="hardAlpha"/>
<feOffset dx="-0.279704" dy="-0.419555"/>
<feGaussianBlur stdDeviation="0.279704"/>
<feComposite in2="hardAlpha" operator="arithmetic" k2="-1" k3="1"/>
<feColorMatrix type="matrix" values="0 0 0 0 0.0250294 0 0 0 0 0.0514773 0 0 0 0 0.421748 0 0 0 0.25 0"/>
<feBlend mode="normal" in2="shape" result="effect1_innerShadow_661_814"/>
</filter>
<filter id="filter4_i_661_814" x="9.7203" y="16.475" width="4.19572" height="4.33557" filterUnits="userSpaceOnUse" color-interpolation-filters="sRGB">
<feFlood flood-opacity="0" result="BackgroundImageFix"/>
<feBlend mode="normal" in="SourceGraphic" in2="BackgroundImageFix" result="shape"/>
<feColorMatrix in="SourceAlpha" type="matrix" values="0 0 0 0 0 0 0 0 0 0 0 0 0 0 0 0 0 0 127 0" result="hardAlpha"/>
<feOffset dx="-0.279704" dy="-0.419555"/>
<feGaussianBlur stdDeviation="0.279704"/>
<feComposite in2="hardAlpha" operator="arithmetic" k2="-1" k3="1"/>
<feColorMatrix type="matrix" values="0 0 0 0 0.0250294 0 0 0 0 0.0514773 0 0 0 0 0.421748 0 0 0 0.25 0"/>
<feBlend mode="normal" in2="shape" result="effect1_innerShadow_661_814"/>
</filter>
<filter id="filter5_i_661_814" x="14.6148" y="16.475" width="4.19572" height="4.33557" filterUnits="userSpaceOnUse" color-interpolation-filters="sRGB">
<feFlood flood-opacity="0" result="BackgroundImageFix"/>
<feBlend mode="normal" in="SourceGraphic" in2="BackgroundImageFix" result="shape"/>
<feColorMatrix in="SourceAlpha" type="matrix" values="0 0 0 0 0 0 0 0 0 0 0 0 0 0 0 0 0 0 127 0" result="hardAlpha"/>
<feOffset dx="-0.279704" dy="-0.419555"/>
<feGaussianBlur stdDeviation="0.279704"/>
<feComposite in2="hardAlpha" operator="arithmetic" k2="-1" k3="1"/>
<feColorMatrix type="matrix" values="0 0 0 0 0.0250294 0 0 0 0 0.0514773 0 0 0 0 0.421748 0 0 0 0.25 0"/>
<feBlend mode="normal" in2="shape" result="effect1_innerShadow_661_814"/>
</filter>
<linearGradient id="paint0_linear_661_814" x1="14" y1="0" x2="14" y2="12.966" gradientUnits="userSpaceOnUse">
<stop stop-color="#8887ED"/>
<stop offset="0.904282" stop-color="#8B8BEF"/>
<stop offset="1" stop-color="#6C6CDF"/>
</linearGradient>
<linearGradient id="paint1_linear_661_814" x1="14" y1="0" x2="14" y2="12.966" gradientUnits="userSpaceOnUse">
<stop stop-color="#ADD8F8"/>
<stop offset="1" stop-color="#77B1E5"/>
</linearGradient>
<linearGradient id="paint2_linear_661_814" x1="14.2425" y1="3.17187" x2="14.2425" y2="26.0002" gradientUnits="userSpaceOnUse">
<stop stop-color="#ADD8F8"/>
<stop offset="1" stop-color="#77B1E5"/>
</linearGradient>
<linearGradient id="paint3_linear_661_814" x1="11.9579" y1="12" x2="11.9579" y2="15.9158" gradientUnits="userSpaceOnUse">
<stop stop-color="white"/>
<stop offset="1" stop-color="#DCDCFD"/>
</linearGradient>
<linearGradient id="paint4_linear_661_814" x1="16.8525" y1="12" x2="16.8525" y2="15.9158" gradientUnits="userSpaceOnUse">
<stop stop-color="white"/>
<stop offset="1" stop-color="#DCDCFD"/>
</linearGradient>
<linearGradient id="paint5_linear_661_814" x1="11.9579" y1="16.8945" x2="11.9579" y2="20.8104" gradientUnits="userSpaceOnUse">
<stop stop-color="white"/>
<stop offset="1" stop-color="#DCDCFD"/>
</linearGradient>
<linearGradient id="paint6_linear_661_814" x1="16.8525" y1="16.8945" x2="16.8525" y2="20.8104" gradientUnits="userSpaceOnUse">
<stop stop-color="white"/>
<stop offset="1" stop-color="#DCDCFD"/>
</linearGradient>
</defs>
</svg>
