<svg width="16" height="16" viewBox="0 0 16 16" fill="none" xmlns="http://www.w3.org/2000/svg">
<g id="ic:round-edit">
<path id="Vector" d="M2 11.6397V13.6663C2 13.853 2.14667 13.9997 2.33333 13.9997H4.36C4.44667 13.9997 4.53333 13.9663 4.59333 13.8997L11.8733 6.62634L9.37333 4.12634L2.1 11.3997C2.03333 11.4663 2 11.5463 2 11.6397ZM13.8067 4.69301C13.8685 4.63133 13.9175 4.55807 13.951 4.47743C13.9844 4.39678 14.0016 4.31032 14.0016 4.22301C14.0016 4.1357 13.9844 4.04924 13.951 3.96859C13.9175 3.88794 13.8685 3.81469 13.8067 3.75301L12.2467 2.19301C12.185 2.13121 12.1117 2.08218 12.0311 2.04872C11.9504 2.01527 11.864 1.99805 11.7767 1.99805C11.6894 1.99805 11.6029 2.01527 11.5223 2.04872C11.4416 2.08218 11.3683 2.13121 11.3067 2.19301L10.0867 3.41301L12.5867 5.91301L13.8067 4.69301Z" fill="#004CFF"/>
</g>
</svg>
