<svg width="27" height="27" viewBox="0 0 27 27" fill="none" xmlns="http://www.w3.org/2000/svg">
<g id="fluent-color:people-16">
<g id="Group">
<path id="Vector" d="M16.9391 20.6955C17.5871 20.9402 18.3954 21.0938 19.4062 21.0938C20.4154 21.0938 21.2237 20.9419 21.87 20.6972C24.4654 19.7151 24.4654 17.2547 24.4654 17.2547C24.4654 16.1123 23.5389 15.1875 22.3982 15.1875H16.4109C15.2685 15.1875 14.3438 16.1123 14.3438 17.2547C14.3438 17.2547 14.3438 19.7134 16.9391 20.6972" fill="url(#paint0_linear_661_889)"/>
<path id="Vector_2" d="M16.9391 20.6955C17.5871 20.9402 18.3954 21.0938 19.4062 21.0938C20.4154 21.0938 21.2237 20.9419 21.87 20.6972C24.4654 19.7151 24.4654 17.2547 24.4654 17.2547C24.4654 16.1123 23.5389 15.1875 22.3982 15.1875H16.4109C15.2685 15.1875 14.3438 16.1123 14.3438 17.2547C14.3438 17.2547 14.3438 19.7134 16.9391 20.6972" fill="url(#paint1_radial_661_889)" fill-opacity="0.5"/>
<path id="Vector_3" d="M16.0312 17.7188C16.0312 17.0474 15.7646 16.4036 15.2899 15.9289C14.8152 15.4542 14.1713 15.1875 13.5 15.1875H5.0625C4.39117 15.1875 3.74734 15.4542 3.27264 15.9289C2.79793 16.4036 2.53125 17.0474 2.53125 17.7188V17.8453C2.53125 17.8453 2.53125 22.7812 9.28125 22.7812C15.714 22.7812 16.0161 18.2992 16.0312 17.8774V17.7188Z" fill="url(#paint2_linear_661_889)"/>
<path id="Vector_4" d="M16.0312 17.7188C16.0312 17.0474 15.7646 16.4036 15.2899 15.9289C14.8152 15.4542 14.1713 15.1875 13.5 15.1875H5.0625C4.39117 15.1875 3.74734 15.4542 3.27264 15.9289C2.79793 16.4036 2.53125 17.0474 2.53125 17.7188V17.8453C2.53125 17.8453 2.53125 22.7812 9.28125 22.7812C15.714 22.7812 16.0161 18.2992 16.0312 17.8774V17.7188Z" fill="url(#paint3_linear_661_889)"/>
<path id="Vector_5" d="M19.4062 13.5C20.3014 13.5 21.1598 13.1444 21.7927 12.5115C22.4257 11.8786 22.7812 11.0201 22.7812 10.125C22.7812 9.22989 22.4257 8.37145 21.7927 7.73851C21.1598 7.10558 20.3014 6.75 19.4062 6.75C18.5111 6.75 17.6527 7.10558 17.0198 7.73851C16.3868 8.37145 16.0312 9.22989 16.0312 10.125C16.0312 11.0201 16.3868 11.8786 17.0198 12.5115C17.6527 13.1444 18.5111 13.5 19.4062 13.5Z" fill="url(#paint4_linear_661_889)"/>
<path id="Vector_6" d="M13.5 9.28125C13.5 10.4001 13.0555 11.4732 12.2644 12.2644C11.4732 13.0555 10.4001 13.5 9.28125 13.5C8.16237 13.5 7.08931 13.0555 6.29814 12.2644C5.50697 11.4732 5.0625 10.4001 5.0625 9.28125C5.0625 8.16237 5.50697 7.08931 6.29814 6.29814C7.08931 5.50697 8.16237 5.0625 9.28125 5.0625C10.4001 5.0625 11.4732 5.50697 12.2644 6.29814C13.0555 7.08931 13.5 8.16237 13.5 9.28125Z" fill="url(#paint5_linear_661_889)"/>
</g>
</g>
<defs>
<linearGradient id="paint0_linear_661_889" x1="16.7501" y1="15.9722" x2="18.9084" y2="21.8751" gradientUnits="userSpaceOnUse">
<stop offset="0.125" stop-color="#497DF8"/>
<stop offset="1" stop-color="#004CFF"/>
</linearGradient>
<radialGradient id="paint1_radial_661_889" cx="0" cy="0" r="1" gradientUnits="userSpaceOnUse" gradientTransform="translate(13.0613 18.1406) rotate(-7.36814) scale(6.71636 6.95949)">
<stop offset="0.392" stop-color="#3B148A"/>
<stop offset="1" stop-color="#3B148A" stop-opacity="0"/>
</radialGradient>
<linearGradient id="paint2_linear_661_889" x1="5.74087" y1="16.1966" x2="8.4375" y2="23.8511" gradientUnits="userSpaceOnUse">
<stop offset="0.125" stop-color="#BD96FF"/>
<stop offset="1" stop-color="#9C6CFE"/>
</linearGradient>
<linearGradient id="paint3_linear_661_889" x1="5.74087" y1="16.1975" x2="8.43783" y2="23.8514" gradientUnits="userSpaceOnUse">
<stop offset="0.125" stop-color="#497DF8"/>
<stop offset="1" stop-color="#004CFF"/>
</linearGradient>
<linearGradient id="paint4_linear_661_889" x1="17.6361" y1="7.64775" x2="21.0769" y2="13.1406" gradientUnits="userSpaceOnUse">
<stop offset="0.125" stop-color="#497DF8"/>
<stop offset="1" stop-color="#004CFF"/>
</linearGradient>
<linearGradient id="paint5_linear_661_889" x1="7.06852" y1="6.18469" x2="11.3695" y2="13.0507" gradientUnits="userSpaceOnUse">
<stop offset="0.125" stop-color="#497DF8"/>
<stop offset="1" stop-color="#004CFF"/>
</linearGradient>
</defs>
</svg>
