<svg width="24" height="24" viewBox="0 0 24 24" fill="none" xmlns="http://www.w3.org/2000/svg">
<g id="uim:process">
<path id="Vector" d="M8.41065 8.5H4.02211C3.76346 8.5 3.51541 8.39464 3.33251 8.20711C3.14962 8.01957 3.04688 7.76522 3.04688 7.5V3C3.04688 2.73478 3.14962 2.48043 3.33251 2.29289C3.51541 2.10536 3.76346 2 4.02211 2C4.28075 2 4.52881 2.10536 4.7117 2.29289C4.89459 2.48043 4.99734 2.73478 4.99734 3V6.5H8.41065C8.6693 6.5 8.91735 6.60536 9.10024 6.79289C9.28314 6.98043 9.38588 7.23478 9.38588 7.5C9.38588 7.76522 9.28314 8.01957 9.10024 8.20711C8.91735 8.39464 8.6693 8.5 8.41065 8.5Z" fill="#004CFF"/>
<path id="Vector_2" d="M20.4798 12.9996C20.2212 12.9996 19.9731 12.8943 19.7902 12.7067C19.6073 12.5192 19.5046 12.2648 19.5046 11.9996C19.5053 10.2392 18.9394 8.52766 17.8946 7.13072C16.8497 5.73378 15.3845 4.72951 13.7262 4.27374C12.0678 3.81797 10.3092 3.93619 8.72307 4.61006C7.13697 5.28393 5.81212 6.47576 4.95411 8.00061C4.82453 8.23016 4.61132 8.39752 4.3614 8.46588C4.11148 8.53423 3.84531 8.49799 3.62145 8.36511C3.39759 8.23224 3.23438 8.01362 3.16772 7.75735C3.10105 7.50109 3.1364 7.22816 3.26598 6.99861C4.33898 5.09285 5.99535 3.60346 7.97812 2.7615C9.96089 1.91954 12.1592 1.77208 14.2321 2.342C16.3049 2.91192 18.1364 4.16736 19.4424 5.91354C20.7483 7.65973 21.4558 9.79905 21.455 11.9996C21.455 12.2648 21.3523 12.5192 21.1694 12.7067C20.9865 12.8943 20.7385 12.9996 20.4798 12.9996ZM19.3827 21.9996C19.124 21.9996 18.876 21.8943 18.6931 21.7067C18.5102 21.5192 18.4074 21.2648 18.4074 20.9996V17.4996H14.9941C14.7355 17.4996 14.4874 17.3943 14.3045 17.2067C14.1216 17.0192 14.0189 16.7648 14.0189 16.4996C14.0189 16.2344 14.1216 15.98 14.3045 15.7925C14.4874 15.605 14.7355 15.4996 14.9941 15.4996H19.3827C19.6413 15.4996 19.8894 15.605 20.0723 15.7925C20.2552 15.98 20.3579 16.2344 20.3579 16.4996V20.9996C20.3579 21.2648 20.2552 21.5192 20.0723 21.7067C19.8894 21.8943 19.6413 21.9996 19.3827 21.9996Z" fill="#004CFF"/>
<path id="Vector_3" d="M11.7035 22C9.11781 21.9974 6.63877 20.9429 4.81041 19.0681C2.98206 17.1934 1.95375 14.6514 1.95117 12C1.95117 11.7348 2.05392 11.4804 2.23681 11.2929C2.4197 11.1054 2.66776 11 2.9264 11C3.18505 11 3.43311 11.1054 3.616 11.2929C3.79889 11.4804 3.90164 11.7348 3.90164 12C3.90089 13.7605 4.46684 15.472 5.51165 16.8689C6.55646 18.2658 8.02172 19.2701 9.68004 19.7259C11.3384 20.1816 13.097 20.0634 14.6831 19.3896C16.2692 18.7157 17.5941 17.5239 18.4521 15.999C18.5163 15.8853 18.6016 15.7858 18.7033 15.7059C18.805 15.6261 18.9211 15.5676 19.0448 15.5337C19.1686 15.4999 19.2976 15.4914 19.4246 15.5087C19.5515 15.5259 19.6739 15.5687 19.7848 15.6345C19.8956 15.7003 19.9927 15.7878 20.0706 15.8921C20.1484 15.9964 20.2055 16.1154 20.2385 16.2423C20.2715 16.3692 20.2798 16.5015 20.263 16.6317C20.2461 16.7618 20.2044 16.8873 20.1402 17.001C19.2827 18.5176 18.0524 19.7773 16.5721 20.6544C15.0918 21.5315 13.4132 21.9955 11.7035 22Z" fill="#004CFF"/>
</g>
</svg>
