<svg width="23" height="23" viewBox="0 0 23 23" fill="none" xmlns="http://www.w3.org/2000/svg">
<g id="uil:transaction">
<path id="Vector" d="M19.1673 1.91699H9.58398C8.82149 1.91699 8.09022 2.21989 7.55105 2.75906C7.01189 3.29823 6.70898 4.02949 6.70898 4.79199V11.5003C6.70898 12.2628 7.01189 12.9941 7.55105 13.5333C8.09022 14.0724 8.82149 14.3753 9.58398 14.3753H19.1673C19.9298 14.3753 20.6611 14.0724 21.2003 13.5333C21.7394 12.9941 22.0423 12.2628 22.0423 11.5003V4.79199C22.0423 4.02949 21.7394 3.29823 21.2003 2.75906C20.6611 2.21989 19.9298 1.91699 19.1673 1.91699ZM20.1257 11.5003C20.1257 11.7545 20.0247 11.9982 19.845 12.178C19.6652 12.3577 19.4215 12.4587 19.1673 12.4587H9.58398C9.32982 12.4587 9.08606 12.3577 8.90634 12.178C8.72662 11.9982 8.62565 11.7545 8.62565 11.5003V4.79199C8.62565 4.53783 8.72662 4.29407 8.90634 4.11435C9.08606 3.93463 9.32982 3.83366 9.58398 3.83366H19.1673C19.4215 3.83366 19.6652 3.93463 19.845 4.11435C20.0247 4.29407 20.1257 4.53783 20.1257 4.79199V11.5003ZM16.7715 7.66699C16.4169 7.66911 16.0756 7.80222 15.8132 8.04074C15.6071 7.85344 15.351 7.73002 15.0761 7.68549C14.8013 7.64096 14.5193 7.67723 14.2647 7.7899C14.01 7.90257 13.7936 8.08679 13.6416 8.32016C13.4897 8.55353 13.4088 8.82601 13.4088 9.10449C13.4088 9.38297 13.4897 9.65545 13.6416 9.88882C13.7936 10.1222 14.01 10.3064 14.2647 10.4191C14.5193 10.5318 14.8013 10.568 15.0761 10.5235C15.351 10.479 15.6071 10.3555 15.8132 10.1682C15.9862 10.3255 16.195 10.4382 16.4215 10.4965C16.648 10.5549 16.8852 10.5571 17.1128 10.5029C17.3403 10.4488 17.5511 10.34 17.7271 10.1859C17.903 10.0318 18.0387 9.83715 18.1223 9.61878C18.206 9.4004 18.2351 9.1649 18.2072 8.93272C18.1793 8.70054 18.0951 8.47868 17.962 8.28638C17.8289 8.09409 17.6509 7.93717 17.4435 7.82923C17.236 7.7213 17.0053 7.66561 16.7715 7.66699ZM15.334 16.292C15.0798 16.292 14.8361 16.393 14.6563 16.5727C14.4766 16.7524 14.3757 16.9962 14.3757 17.2503V18.2087C14.3757 18.4628 14.2747 18.7066 14.095 18.8863C13.9152 19.066 13.6715 19.167 13.4173 19.167H3.83398C3.57982 19.167 3.33606 19.066 3.15634 18.8863C2.97662 18.7066 2.87565 18.4628 2.87565 18.2087V14.3753H3.83398C4.08815 14.3753 4.33191 14.2744 4.51163 14.0946C4.69135 13.9149 4.79232 13.6712 4.79232 13.417C4.79232 13.1628 4.69135 12.9191 4.51163 12.7393C4.33191 12.5596 4.08815 12.4587 3.83398 12.4587H2.87565V11.5003C2.87565 11.2462 2.97662 11.0024 3.15634 10.8227C3.33606 10.643 3.57982 10.542 3.83398 10.542C4.08815 10.542 4.33191 10.441 4.51163 10.2613C4.69135 10.0816 4.79232 9.83782 4.79232 9.58366C4.79232 9.32949 4.69135 9.08574 4.51163 8.90601C4.33191 8.72629 4.08815 8.62533 3.83398 8.62533C3.07149 8.62533 2.34022 8.92823 1.80105 9.46739C1.26189 10.0066 0.958984 10.7378 0.958984 11.5003V18.2087C0.958984 18.9712 1.26189 19.7024 1.80105 20.2416C2.34022 20.7808 3.07149 21.0837 3.83398 21.0837H13.4173C14.1798 21.0837 14.9111 20.7808 15.4503 20.2416C15.9894 19.7024 16.2923 18.9712 16.2923 18.2087V17.2503C16.2923 16.9962 16.1914 16.7524 16.0116 16.5727C15.8319 16.393 15.5882 16.292 15.334 16.292ZM5.75065 17.2503H6.70898C6.96315 17.2503 7.20691 17.1494 7.38663 16.9696C7.56635 16.7899 7.66732 16.5462 7.66732 16.292C7.66732 16.0378 7.56635 15.7941 7.38663 15.6143C7.20691 15.4346 6.96315 15.3337 6.70898 15.3337H5.75065C5.49649 15.3337 5.25273 15.4346 5.07301 15.6143C4.89329 15.7941 4.79232 16.0378 4.79232 16.292C4.79232 16.5462 4.89329 16.7899 5.07301 16.9696C5.25273 17.1494 5.49649 17.2503 5.75065 17.2503Z" fill="#004CFF"/>
</g>
</svg>
