<svg width="19" height="19" viewBox="0 0 19 19" fill="none" xmlns="http://www.w3.org/2000/svg">
<g id="Vector">
<path id="Vector_2" d="M9.5 0C7.62108 0 5.78435 0.557165 4.22209 1.60104C2.65982 2.64491 1.44218 4.12861 0.723149 5.86451C0.00411617 7.6004 -0.184015 9.51054 0.182544 11.3534C0.549104 13.1962 1.45389 14.8889 2.78249 16.2175C4.11109 17.5461 5.80383 18.4509 7.64665 18.8175C9.48946 19.184 11.3996 18.9959 13.1355 18.2769C14.8714 17.5578 16.3551 16.3402 17.399 14.7779C18.4428 13.2156 19 11.3789 19 9.5C18.9975 6.9812 17.9959 4.56626 16.2148 2.7852C14.4337 1.00413 12.0188 0.00245378 9.5 0ZM9.5 4.34683C9.74458 4.3505 9.97779 4.4507 10.1488 4.6256C10.3198 4.8005 10.4147 5.03591 10.4129 5.2805C10.4111 5.5251 10.3126 5.75906 10.139 5.93137C9.96539 6.10369 9.73071 6.20038 9.4861 6.20038C9.24149 6.20038 9.00681 6.10369 8.8332 5.93137C8.65958 5.75906 8.56113 5.5251 8.5593 5.2805C8.55746 5.03591 8.6524 4.8005 8.8234 4.6256C8.99441 4.4507 9.22762 4.3505 9.4722 4.34683H9.5ZM10.4268 14.3844C10.4268 14.6302 10.3292 14.8659 10.1554 15.0398C9.98156 15.2136 9.74581 15.3112 9.5 15.3112C9.25419 15.3112 9.01845 15.2136 8.84464 15.0398C8.67082 14.8659 8.57317 14.6302 8.57317 14.3844V8.51756C8.57317 8.27175 8.67082 8.03601 8.84464 7.86219C9.01845 7.68838 9.25419 7.59073 9.5 7.59073C9.74581 7.59073 9.98156 7.68838 10.1554 7.86219C10.3292 8.03601 10.4268 8.27175 10.4268 8.51756V14.3844Z" fill="white"/>
</g>
</svg>
